<svg width="20" height="30" viewBox="0 0 20 30" fill="none" xmlns="http://www.w3.org/2000/svg">
<path d="M8.31799 8.14538C6.80481 8.14538 5.35467 8.4516 3.96759 9.00279L3.3371 9.24776V0.428703H0.625977V10.7176L2.7066 12.7386C4.21979 11.3913 6.17431 10.6564 8.25494 10.6564C12.8575 10.6564 16.5774 14.2697 16.5774 18.7405C16.5774 23.2113 12.9206 26.9471 8.31799 26.9471C6.17431 26.9471 4.09369 26.151 2.5805 24.6811L0.689025 26.5184C2.76965 28.4782 5.48077 29.5194 8.31799 29.5194C14.3707 29.5194 19.3516 24.7424 19.3516 18.8017C19.3516 12.8611 14.4338 8.14538 8.31799 8.14538Z" fill="#2C3F46"/>
</svg>
